<?xml version="1.0" standalone="no"?><!DOCTYPE svg PUBLIC "-//W3C//DTD SVG 1.1//EN" "http://www.w3.org/Graphics/SVG/1.1/DTD/svg11.dtd"><svg t="1637856665124" class="icon" viewBox="0 0 1024 1024" version="1.1" xmlns="http://www.w3.org/2000/svg" p-id="48258" xmlns:xlink="http://www.w3.org/1999/xlink" width="250" height="250"><defs><style type="text/css"></style></defs><path d="M509.504 0.8a508.448 508.448 0 1 0 0 1016.96 508.448 508.448 0 0 0 0-1016.96z" fill="#FF509B" p-id="48259"></path><path d="M169.376 334.016c0 34.304 0 68.32 0.544 102.528 0.384 17.824 0.96 35.616 2.368 53.44 1.536 21.248 3.872 42.88 5.76 64.544 0 0.96 0.64 1.792 0.64 2.368 7.36-0.384 14.528-0.96 21.632-0.96 30.4-0.832 60.128 3.296 88.64 14.496 13.888 5.6 27.456 12.032 39.392 21.056 9.92 7.52 12.224 16.8 6.88 30.464-2.848 8.256-8.256 15.392-15.456 20.352-16.864 13.312-34.24 24.96-54.56 31.68a263.04 263.04 0 0 1-43.712 10.688c-19.328 2.88-39.04 4.256-58.752 6.176-4.064 0.64-7.968 0-12.224 0-1.92 0-2.56-0.96-2.56-2.88-0.16-8.704-0.96-17.792-1.504-26.88-0.96-11.52-2.144-23.04-3.52-34.56l-5.696-48.128c-1.984-16.992-4.32-33.856-6.24-50.688-1.92-16.672-3.52-33.088-5.76-49.568-2.752-18.752-5.312-37.312-8.16-56.416a506.784 506.784 0 0 0-12.928-65.92c-0.384-0.96 0.576-2.88 1.152-3.52A2543.904 2543.904 0 0 0 162.56 329.6c6.176-2.72 6.816-3.68 6.816 4.48v-0.096z m409.952 0c0 34.304 0 68.32 0.576 102.528 0.384 17.824 0.96 35.616 2.368 53.44 1.536 21.248 3.872 42.88 5.76 64.544 0 0.96 0.64 1.792 0.64 2.368 7.36-0.384 14.528-0.96 21.632-0.96 30.4-0.832 60.128 3.296 88.64 14.496 13.888 5.6 27.392 12.032 39.392 21.056 10.048 7.52 12.288 16.8 6.72 30.336-2.88 8.224-8.256 15.36-15.424 20.288-16.864 13.376-34.272 24.96-54.56 31.744a263.04 263.04 0 0 1-43.712 10.624c-19.392 2.912-39.104 4.32-58.816 6.24-4 0.576-7.968 0-12.224 0-1.92 0-2.56-0.96-2.56-2.88-0.16-8.704-0.864-17.792-1.44-26.88-0.96-11.552-2.144-23.104-3.52-34.624l-5.76-48.064c-1.92-17.056-4.256-33.92-6.176-50.752-1.92-16.64-3.52-33.088-5.856-49.504-2.72-18.752-5.216-37.312-8.064-56.48a506.784 506.784 0 0 0-12.992-65.888c-0.192-1.024 0.832-2.912 1.344-3.296 19.072-7.36 38.176-14.88 57.248-22.72 6.24-2.72 6.784-3.68 6.784 4.48v-0.096z m-110.848 183.008c10.112 0 20.352 0.192 30.4 0.64 2.56 0 3.872 1.92 3.872 4.16 0.256 5.312 0.64 10.144 0.64 15.36 0 23.584-0.384 47.616 0 71.168 0.32 19.072 0.96 37.76 1.28 56.864 0 0.96 0 2.336 0.384 4.448-10.816-0.064-21.696 0.256-31.936-0.064-0.96 0-2.56-1.6-2.56-2.56-1.44-16.832-2.784-33.6-4.352-50.432l-4.288-46.816c-1.28-15.904-2.848-32-4.256-48.128 0-0.96 0-1.92-0.384-3.328 3.68-0.832 7.424-1.28 11.2-1.312z m410.048 0c10.112 0 20.352 0.192 30.4 0.64 2.56 0 3.872 1.92 3.872 4.16 0.256 5.312 0.64 10.144 0.64 15.36 0 23.584-0.384 47.616 0 71.168 0.384 19.072 0.96 37.76 1.28 56.864 0 0.96 0 2.336 0.384 4.448-10.816-0.064-21.696 0.256-31.936-0.064-0.96 0-2.56-1.6-2.56-2.56-1.44-16.832-2.784-33.6-4.384-50.432l-4.256-46.816c-1.28-15.904-2.88-32-4.256-48.128 0-0.96 0-1.92-0.384-3.328 3.68-0.832 7.424-1.28 11.2-1.312z m-501.056-1.408c1.152 7.744 2.56 15.456 3.424 23.584 1.792 13.248 2.88 26.56 4.256 39.68 1.344 11.648 2.56 23.04 3.968 34.624 1.28 12.192 2.88 24.544 4.448 37.28 0.32 3.488 0.896 7.36 1.28 11.2-11.264 1.376-22.272 2.72-33.92 4.288a18171.84 18171.84 0 0 1-29.376-149.888c8.064-0.96 15.904-2.368 23.584-3.328 5.6-0.8 11.456-0.8 16.864-1.312 3.104-0.384 5.024 0.96 5.44 3.84z m410.048 0c1.216 7.744 2.56 15.456 3.424 23.584 1.792 13.248 2.944 26.56 4.32 39.68l3.84 34.624 4.448 37.28c0.384 3.488 0.96 7.36 1.312 11.2-11.232 1.376-22.24 2.72-33.888 4.288a15618.016 15618.016 0 0 1-29.376-149.888c8.064-0.96 15.904-2.368 23.68-3.328 5.568-0.8 11.36-0.8 16.768-1.312 3.104-0.384 5.024 0.96 5.44 3.84z m-363.2-140.16l2.88 43.68c1.28 19.712 2.88 39.424 4.256 59.136 0.96 14.304 1.536 28.448 2.88 42.816 1.344 15.648 2.88 31.168 4.256 46.56 1.344 11.2 2.368 23.04 3.296 34.24 1.344 12.16 2.752 24.576 3.52 37.312l0.96 10.624c0.032 1.92-0.896 2.272-2.816 1.92-10.048-0.96-19.712-1.536-30.4-2.496-9.088-91.84-16.864-184.448-34.24-276.992l17.184-1.92 20.16-1.28c5.6-0.416 7.68 0.896 8.096 6.4z m410.016 0l2.88 43.68c1.248 19.712 2.848 39.424 4.224 59.136 0.96 14.304 1.6 28.448 2.88 42.816 1.312 15.648 2.88 31.168 4.32 46.56 1.28 11.2 2.272 23.04 3.296 34.24 1.28 12.16 2.688 24.576 3.456 37.312l0.96 10.624c0.096 1.92-0.832 2.272-2.816 1.92-10.112-0.96-19.712-1.536-30.4-2.496-9.088-91.84-16.864-184.448-34.24-276.992l17.184-1.92 20.16-1.28c5.6-0.416 7.68 0.896 8.096 6.4z m-364.16 66.752v0.128c2.56 0 3.456 0.576 3.456 3.456-0.384 7.744 0 15.872 0 23.584v29.376c-5.76 0.64-11.008 0.96-16.224 1.28-1.6-18.688-2.912-37.664-4.448-57.824h17.248z m410.08 0v0.128c2.56 0 3.424 0.576 3.424 3.456-0.384 7.744 0 15.872 0 23.584v29.376c-5.76 0.64-11.008 0.96-16.224 1.28-1.6-18.688-2.912-37.664-4.448-57.824h17.248z m-382.784 0.256c2.88 0 4.288 0.96 4.288 4.48v52.96l-20.992-0.96V442.56h16.704v-0.064z m410.048 0c2.88 0 4.288 0.96 4.288 4.48v52.96l-20.992-0.96V442.56h16.704v-0.064z m-569.408-3.232c2.72-0.384 1.92 1.92 2.336 3.424l1.92 19.136c0.96 10.112 2.336 19.744 3.296 29.856v3.84l-15.648 2.752c-3.52-18.752-6.816-37.312-10.24-56.48 6.176-0.64 12.096-2.016 18.336-2.56z m410.048 0c2.72-0.384 1.92 1.92 2.336 3.424l1.92 19.136c0.96 10.112 2.336 19.744 3.296 29.856v3.84l-15.648 2.752c-3.52-18.752-6.816-37.312-10.24-56.48 6.08-0.64 12.096-2.016 18.336-2.56z m-382.656-3.136c1.92 0 2.944 1.216 3.392 3.52 1.696 17.792 3.296 35.168 5.216 53.536-6.816 0.832-13.184 0.96-20.352 1.536l-7.328-58.208c6.624-0.384 12.896-0.384 19.072-0.384z m410.112 0c1.92 0 2.88 1.216 3.296 3.52 1.728 17.792 3.328 35.168 5.216 53.536-6.784 0.832-13.152 0.96-20.352 1.536l-7.296-58.208c6.56-0.384 12.896-0.384 19.072-0.384h0.064z" fill="#FFFFFF" p-id="48260"></path><path d="M208.096 592.256c2.912 20.864 5.856 41.92 8.704 63.616 17.824-13.376 34.784-26.464 52.032-39.456-2.272-2.912-49.536-21.696-60.736-24.16z m410.112 0c2.88 20.864 5.76 41.92 8.64 63.616 17.824-13.376 34.784-26.464 52.032-39.456-2.304-2.912-49.472-21.696-60.672-24.16z" fill="#F66E98" p-id="48261"></path></svg>