<?xml version="1.0" ?><!DOCTYPE svg  PUBLIC '-//W3C//DTD SVG 1.1//EN'  'http://www.w3.org/Graphics/SVG/1.1/DTD/svg11.dtd'><svg enable-background="new 0 0 32 32" height="32px" version="1.1" viewBox="0 0 32 32" width="32px" xml:space="preserve" xmlns="http://www.w3.org/2000/svg" xmlns:xlink="http://www.w3.org/1999/xlink"><g id="_x3C_Layer_x3E_"><g id="Gmail"><g><g><path d="M3.477,26.5h4.614V15.313L1.5,9.75v14.775C1.5,25.617,2.386,26.5,3.477,26.5z" fill="#80D8FF"/></g><g><path d="M23.909,26.5h4.614c1.091,0,1.977-0.883,1.977-1.975L30.531,10l-6.622,5.313V26.5z" fill="#1AD2A4"/></g><g><path d="M23.909,6.758v8.555l6.591-4.936V7.745c0-2.441-2.79-3.834-4.746-2.37L23.909,6.758z" fill="#FFF176"/></g><g><path d="M8.091,15.313l-0.528-9L16,12.68l8.219-6.149l-0.31,8.782L16,21.236L8.091,15.313z" fill="#FF8A80"/></g><g><path d="M1.5,7.745v2.632l6.591,4.936V6.758L6.246,5.375C4.29,3.911,1.5,5.304,1.5,7.745z" fill="#E67C73"/></g></g><g><g><path d="M16.468,13.572c0.134,0.098,0.35,0.096,0.482-0.002l8.458-6.311l1.845-1.383      c0.6-0.449,1.278-0.627,1.93-0.591c-0.981-0.652-2.335-0.728-3.43,0.091l-1.845,1.383L16,12.68l-0.191,0.41L16.468,13.572z" fill="#FFFFFF"/></g><g><path d="M3,25.025V10.877V8.245c0-1.803,1.521-3.029,3.104-2.96C4.158,3.985,1.5,5.361,1.5,7.745v2.632v14.148      c0,1.091,0.886,1.975,1.977,1.975h0.197C3.264,26.138,3,25.615,3,25.025z" fill="#FFFFFF"/></g></g><g><path d="M28.523,27h-4.614c-0.276,0-0.5-0.224-0.5-0.5v-9c0-0.276,0.224-0.5,0.5-0.5s0.5,0.224,0.5,0.5V26h4.114     C29.337,26,30,25.338,30,24.525V7.745c0-0.952-0.509-1.774-1.36-2.201c-0.854-0.428-1.821-0.342-2.585,0.231L16.3,13.081     c-0.178,0.133-0.422,0.133-0.6,0L5.946,5.775C5.181,5.204,4.214,5.117,3.36,5.544C2.509,5.971,2,6.793,2,7.745v16.78     C2,25.338,2.663,26,3.477,26h4.114v-8.5c0-0.276,0.224-0.5,0.5-0.5s0.5,0.224,0.5,0.5v9c0,0.276-0.224,0.5-0.5,0.5H3.477     C2.111,27,1,25.89,1,24.525V7.745C1,6.427,1.733,5.241,2.913,4.65c1.183-0.591,2.574-0.467,3.633,0.325L16,12.056l9.455-7.081     c1.059-0.792,2.451-0.916,3.633-0.325C30.267,5.241,31,6.427,31,7.745v16.78C31,25.89,29.889,27,28.523,27z" fill="#455A64"/></g><g><path d="M16,21.736c-0.105,0-0.211-0.033-0.3-0.1l-7.909-5.923c-0.221-0.166-0.266-0.479-0.101-0.7     c0.166-0.22,0.479-0.267,0.7-0.101L16,20.611l7.609-5.699c0.221-0.165,0.535-0.12,0.7,0.101c0.166,0.221,0.12,0.535-0.101,0.7     L16.3,21.636C16.211,21.703,16.105,21.736,16,21.736z" fill="#455A64"/></g></g></g><g id="Layer_1"/></svg>