<?xml version="1.0" standalone="no"?><!DOCTYPE svg PUBLIC "-//W3C//DTD SVG 1.1//EN" "http://www.w3.org/Graphics/SVG/1.1/DTD/svg11.dtd"><svg t="1659575539214" class="icon" viewBox="0 0 1024 1024" version="1.1" xmlns="http://www.w3.org/2000/svg" p-id="14919" xmlns:xlink="http://www.w3.org/1999/xlink" width="16" height="16"><defs><style type="text/css"></style></defs><path d="M512 64C264.6 64 64 269.8 64 523.4c0 203 128.4 375 306.4 435.8 2.8 0.6 5.2 0.8 7.6 0.8 16.6 0 23-12.2 23-22.8 0-11-0.4-39.8-0.6-78.2-16.8 3.8-31.8 5.4-45.2 5.4-86.2 0-105.8-67-105.8-67-20.4-53-49.8-67.2-49.8-67.2-39-27.4-0.2-28.2 2.8-28.2 0.2 0 0.2 0 0.2 0 45 4 68.6 47.6 68.6 47.6 22.4 39.2 52.4 50.2 79.2 50.2 21 0 40-6.8 51.2-12 4-29.6 15.6-49.8 28.4-61.4-99.4-11.6-204-51-204-227 0-50.2 17.4-91.2 46-123.2-4.6-11.6-20-58.4 4.4-121.6 0 0 3.2-1 10-1 16.2 0 52.8 6.2 113.2 48.2 35.8-10.2 74-15.2 112.2-15.4 38 0.2 76.4 5.2 112.2 15.4 60.4-42 97-48.2 113.2-48.2 6.8 0 10 1 10 1 24.4 63.2 9 110 4.4 121.6 28.6 32.2 46 73.2 46 123.2 0 176.4-104.8 215.2-204.6 226.6 16 14.2 30.4 42.2 30.4 85 0 61.4-0.6 111-0.6 126 0 10.8 6.2 23 22.8 23 2.4 0 5.2-0.2 8-0.8C831.8 898.4 960 726.2 960 523.4 960 269.8 759.4 64 512 64zM355.2 896.2c4.4 0 8.8-0.2 13.4-0.4 0 5.6 0 11 0.2 15.8 0 4.8 0 9.2 0.2 13-31.2-11.6-60.6-27-88.2-46C300.4 889.2 325 896.2 355.2 896.2zM378 750.4c-1.6 4.4-3 9-4.2 13.8-6.8 2-15 3.6-23.4 3.6-21.8 0-38-10.8-51.2-33.8-4.8-9.2-13.6-21.4-25.8-32.6C307 729.6 346 743.2 378 750.4zM758 868.2c-31.6 23.8-66 42.6-102 56.4 0-3.8 0-8.2 0-13 0-23.8 0-59.6 0-100.8 0-24.8-4.2-45-10-61 74.4-16.6 184-67.4 184-250.8 0-49.2-14.2-93-42.4-130.2 6.2-25.8 11-71.2-10.2-126l-5.4-14.2-14.4-4.8c-3-1-9.6-2.6-20-2.6-23 0-61.8 8.2-119 45.6-34-8.4-69.6-12.8-106.2-12.8L512 254l-0.2 0c-36.6 0-72.4 4.4-106.2 12.8-57.2-37.4-96-45.6-119-45.6-10.4 0-17 1.8-20 2.8l-14.4 4.8-5.4 14.2c-21.2 55-16.4 100.4-10.2 126-28.2 37.4-42.4 81.2-42.4 130.2 0 99.2 32 159.8 73.2 197-16.2-13.2-37.2-24.2-62.4-26L204 670.2l-1 0-0.6 0c-26.2 0-44.6 10.8-50.4 29.4-9.4 29.6 19.6 50 29.2 56.8l1 1.2 3 1.2c3.2 2 20.2 14 33.8 49 4 12.4 12.6 29 27.2 44.4-26.2-22.4-49.6-48-69.8-76.2C123.8 702.4 96 615 96 523.4c0-57.8 11-113.8 32.8-166.6 21-51 51-96.6 89.4-135.8 38.2-39.2 82.8-70 132.2-91.4C401.6 107.4 456 96 512 96s110.4 11.2 161.6 33.4c49.6 21.4 94 52.2 132.2 91.4 38.2 39.2 68.4 85 89.4 135.8 21.8 52.8 32.8 108.8 32.8 166.6 0 91.6-27.6 179-80.2 252.6C822.6 811.2 792.4 842.2 758 868.2z" p-id="14920" fill="#a4a3a3"></path></svg>