<?xml version="1.0" standalone="no"?><!DOCTYPE svg PUBLIC "-//W3C//DTD SVG 1.1//EN" "http://www.w3.org/Graphics/SVG/1.1/DTD/svg11.dtd"><svg t="1659574238056" class="icon" viewBox="0 0 1024 1024" version="1.1" xmlns="http://www.w3.org/2000/svg" p-id="3144" xmlns:xlink="http://www.w3.org/1999/xlink" width="16" height="16"><defs><style type="text/css"></style></defs><path d="M469.333333 520.533333c-29.866667-38.4-46.933333-85.333333-46.933333-136.533333 0-119.466667 93.866667-213.333333 213.333333-213.333333s213.333333 93.866667 213.333334 213.333333-93.866667 213.333333-213.333334 213.333333c-51.2 0-98.133333-17.066667-132.266666-46.933333l-136.533334 136.533333 76.8 76.8-29.866666 29.866667-76.8-76.8-59.733334 59.733333L349.866667 853.333333l-29.866667 29.866667-76.8-76.8-29.866667-29.866667 256-256zM635.733333 213.333333c-93.866667 0-170.666667 76.8-170.666666 170.666667s76.8 170.666667 170.666666 170.666667 170.666667-76.8 170.666667-170.666667-76.8-170.666667-170.666667-170.666667z" fill="#a4a3a3" p-id="3145"></path></svg>