<svg xmlns="http://www.w3.org/2000/svg" viewBox="0 0 1696 935"><style>.st1,.st4,.st6{fill:#999;stroke:#000;stroke-width:8;stroke-miterlimit:10}.st4,.st6{fill:#4d4d4d}.st6{fill:none}.st21{fill:#fff}</style><g id="图层_1"><g opacity=".58"><path d="M1397.3 699.5l2 33c.1 2.3 1.8 4.3 4.1 4.9l131 33.5c4.1 1 5.5 6.1 2.5 9.1-1.1 1.1-2.5 1.6-4 1.6l-224.5-6.6c-.6 0-1.1-.1-1.7-.3l-19-6.8c-2.2-.8-3.6-2.8-3.6-5.1v-23.7c0 .6 81.1-33.8 105.7-44.2 3.5-1.5 7.3.9 7.5 4.6z" class="st1"/><linearGradient id="SVGID_1_" x1="1151.145" x2="1325.0999" y1="176.8659" y2="176.8659" gradientUnits="userSpaceOnUse"><stop offset="0" stop-color="#fff"/><stop offset="1"/></linearGradient><path fill="url(#SVGID_1_)" fill-opacity=".26" stroke="#000" stroke-miterlimit="10" stroke-width="8" d="M1151.7 251.2c11-15.1 48.3-63.7 90.4-89 .1-.1.2-.1.3-.2 2.2-1.7 31.8-25.4 35-35.1 2.1-6.2 17.4-19.3 28.9-28.5 2.5-2 5.8.9 4.3 3.7-11.9 21-28.9 61.2-1.3 85.1 38.5 33.5-3.3 0-16.7 3.3-12.2 3.1-43.9 54.8-49.4 63.9-.5.9-1.4 1.4-2.5 1.4l-86.6-.1c-2.4.1-3.8-2.6-2.4-4.5z"/><path fill="#666" stroke="#000" stroke-miterlimit="10" stroke-width="8" d="M587.9 443.5S796.8 217.4 1111.6 199l65.3 20.8-28.5 27.8c.1-.1-297.3 16.8-560.5 195.9z"/><path d="M303.2 668.2s-32.1-89.1-65.6-95.8c-33.5-6.7-56.9-48.6-56.9-48.6s-5 35.2 0 56.9 41.9 65.3 41.9 65.3 20.6 42.6 80.6 22.2z" class="st4"/><path d="M28.3 548.9S51.7 723 267.7 709.6L214 635.5S53.4 574 28.3 548.9z" class="st4"/><path fill="#b3b3b3" stroke="#000" stroke-miterlimit="10" stroke-width="8" d="M468.6 778.3s185.9 87.1 341.6 50.2C965.9 791.7 981 764.9 981 764.9l-180.8 26.8-331.6-13.4z"/><path d="M1148.5 247.5s-20.1 63.6-40.2 83.7M1242.2 254.2s-117.2 316.5 82 338.2M1458.2 337.9c-68.7 15.1-103.8-8.4-103.8-8.4" class="st6"/><path fill="#fff" stroke="#000" stroke-miterlimit="10" stroke-width="8" d="M1441.5 346.3c21.8 21.8-11.7 53.6-26.8 60.3-15.1 6.7-33.5-10-45.2-15.1-11.7-5-75.3 75.3-75.3 75.3 3.3-55.3 70.3-93.8 68.7-97.1-1.7-3.3 0-23.4 0-23.4l8.6-8.6s46.7 7.8 55 4.9c8.3-3 15 3.7 15 3.7z"/><circle cx="1415.5" cy="370.6" r="9.2"/><path fill="#999" d="M1664.2 359.7c23.3 2.7-28.5 41.9-28.5 41.9l-58.6-5-30.1 3.3s31.8-50.2 117.2-40.2z"/><path d="M222.5 644.4s20.1 67 122.2 0S842 41.6 1657.5 348c0 0 6.7 6.7 6.7 10s-88-18.1-117.2 40.2c-3.3 6.7 15.1 1.7 15.1 1.7l-21.8 35.2s25.1-40.2 43.5-40.2 100.5 11.7 88.7 46.9c-11.7 35.2-120.6 229.4-483.9 324.8 0 0-622.9 46.9-715 11.7s-226-48.5-251.1-133.9z" class="st6"/><linearGradient id="SVGID_2_" x1="954.2802" x2="954.2802" y1="679.6256" y2="259.0395" gradientUnits="userSpaceOnUse"><stop offset="0" stop-color="#fff"/><stop offset="1"/></linearGradient><path fill="url(#SVGID_2_)" fill-opacity=".26" d="M240.5 672.1s8.4 20.5 99.2-5.9c119.7-34.8 289.5-123.6 483.9-175.8 279.8-75.2 592.6-109.3 726.7-90.4 0 0 6.3-41.9 106.1-41.9s-465.4-181.4-797.3-53-447.4 280.7-447.4 280.7-93 105.6-171.2 86.3z"/><path d="M1558.7 443.4s30.1-20.1 65.3-20.1" class="st1"/></g><path fill="#3f62c7" d="M628.5 120.8H1243v693.8H628.5z"/><linearGradient id="SVGID_3_" x1="628.5349" x2="920.6312" y1="758.2481" y2="758.2481" gradientUnits="userSpaceOnUse"><stop offset="0" stop-color="#53e3b4"/><stop offset="1" stop-color="#4fccc5" stop-opacity=".6"/></linearGradient><path fill="url(#SVGID_3_)" d="M628.5 740s254.4-46.4 284.7-36.8c30.3 9.6-42.9 111.4-42.9 111.4H628.5V740z"/><linearGradient id="SVGID_4_" x1="870.3969" x2="1082.5265" y1="760.3624" y2="760.3624" gradientUnits="userSpaceOnUse"><stop offset="0" stop-color="#53e3b4"/><stop offset="1" stop-color="#4fccc5" stop-opacity=".6"/></linearGradient><path fill="url(#SVGID_4_)" d="M1082.5 814.6s-149.2-78.4-164.7-108.5c0 0 18.9 14.3-47.5 108.5h212.2z"/><g opacity=".85"><linearGradient id="SVGID_5_" x1="976.5901" x2="1115.5823" y1="760.3446" y2="760.3446" gradientUnits="userSpaceOnUse"><stop offset="0" stop-color="#53e3b4"/><stop offset="1" stop-color="#4fccc5" stop-opacity=".6"/></linearGradient><path fill="url(#SVGID_5_)" d="M976.6 753.6s93.9-29.7 130.5-29.7c36.6 0-57.2 73-57.2 73s-62.6-35.3-73.3-43.3z"/><linearGradient id="SVGID_6_" x1="1049.9352" x2="1242.8149" y1="771.691" y2="771.691" gradientUnits="userSpaceOnUse"><stop offset="0" stop-color="#53e3b4"/><stop offset="1" stop-color="#4fccc5" stop-opacity=".6"/></linearGradient><path fill="url(#SVGID_6_)" d="M1242.8 814.6s-114.8-62.4-127.2-85.9c0 0 7 9.5-65.6 68l32.6 17.9h160.2z"/></g><path fill="none" stroke="#3f62c7" stroke-miterlimit="10" stroke-width="16" d="M557.7 24H1314v887.4H557.7z"/><path fill="none" stroke="#3f62c7" stroke-miterlimit="10" stroke-width="4" d="M537.2 0h797.2v935.5H537.2z"/><g><linearGradient id="SVGID_7_" x1="725.9636" x2="852.9869" y1="447.9324" y2="447.9324" gradientUnits="userSpaceOnUse"><stop offset="0" stop-color="#53e3b4"/><stop offset="1" stop-color="#4fccc5" stop-opacity=".6"/></linearGradient><path fill="url(#SVGID_7_)" d="M810.8 596.9v-87.3H726v-12.9l81.2-197.8h21.1v194.6H853l-2.3 16.1h-22.4v87.3h-17.5zm0-194.2c0-26.7.5-53.3 1.4-79.5h-.5c-20 54.4-45.4 117.3-66.8 170.4h65.9v-90.9z"/><linearGradient id="SVGID_8_" x1="880.7646" x2="991.4343" y1="447.9324" y2="447.9324" gradientUnits="userSpaceOnUse"><stop offset="0" stop-color="#53e3b4"/><stop offset="1" stop-color="#4fccc5" stop-opacity=".6"/></linearGradient><path fill="url(#SVGID_8_)" d="M991.4 367.4v162.3c0 56.6-25.4 70.9-55.8 70.9-27.6 0-54.8-13.4-54.8-70V367.9c0-60.8 30.5-72.6 56.3-72.6 24.7 0 54.3 11.8 54.3 72.1zm-92.6.4v161.6c0 37.3 11.8 53.7 37.7 53.7 21.9 0 36.8-10.1 36.8-54.6V368.2c0-43.5-16.7-55.4-37.3-55.4-20.9 0-37.2 10.1-37.2 55z"/><linearGradient id="SVGID_9_" x1="1018.3954" x2="1145.4187" y1="447.9324" y2="447.9324" gradientUnits="userSpaceOnUse"><stop offset="0" stop-color="#53e3b4"/><stop offset="1" stop-color="#4fccc5" stop-opacity=".6"/></linearGradient><path fill="url(#SVGID_9_)" d="M1103.2 596.9v-87.3h-84.8v-12.9l81.2-197.8h21.1v194.6h24.7l-2.3 16.1h-22.4v87.3h-17.5zm0-194.2c0-26.7.5-53.3 1.4-79.5h-.5c-20 54.4-45.4 117.3-66.8 170.4h65.9v-90.9z"/><g><path d="M828 537.6c-5.8 0-8.9 4.8-10.6 13.1l-9.4 44.5c-2 9.2-.1 14.1 6.6 14.1 5.9 0 8.8-4.6 10.8-13.8l9.4-44.1c1.9-9-.2-13.8-6.8-13.8zM958.5 537.6c-5.8 0-8.9 4.8-10.6 13.1l-9.4 44.5c-2 9.2-.1 14.1 6.6 14.1 5.9 0 8.8-4.6 10.8-13.8l9.4-44.1c1.9-9-.3-13.8-6.8-13.8z" class="st21"/><path d="M726.2 506.7v133.4h419.4V506.7H726.2zm52.6 109.2h-10.4c-.8-19-2.9-63.1-2.9-69.3h-.1c-1.7 10.8-4.1 23.8-7.4 39.1l-6.4 30.3H743l18-84.8h10.7c.9 21.9 2.9 63.1 2.8 67.7h.2c2.1-11.7 4.3-24 7.2-37.8l6.3-29.9h8.5l-17.9 84.7zm64.7-63.2l-9 42.1c-3 13.9-7.4 22.2-20.8 22.2-13.8 0-17.1-9.5-14.4-22.8l9.1-43.4c2.8-13.2 8.8-20.9 20.5-20.9 12.8 0 17.4 9.5 14.6 22.8zm16.3 63.2H851l16.3-76.7h-13.2l1.8-8.1H891l-1.8 8.1h-13.1l-16.3 76.7zm61.2-40.6h-18.9l-8.6 40.6h-9l18-84.8h28.9l-1.8 8.1h-20l-5.8 28h18.9l-1.7 8.1zm52.9-22.6l-9 42.1c-3 13.9-7.4 22.2-20.8 22.2-13.8 0-17.1-9.5-14.4-22.8l9.1-43.4c2.8-13.2 8.8-20.9 20.5-20.9 12.9 0 17.5 9.5 14.6 22.8zm20.5 64.2c-12.1 0-17.2-6.9-14.3-20.5l13.9-65.3h8.8l-14 65.8c-1.4 6.6-.5 12.1 6.5 12.1 6.9 0 9-5.2 10.5-12.2l14-65.7h8.9l-13.8 64.9c-3 13.2-7 20.9-20.5 20.9zm58.5-1c-.8-19-2.9-63.1-2.9-69.3h-.1c-1.7 10.8-4.1 23.8-7.4 39.1l-6.4 30.3h-8.6l18-84.8h10.7c.9 21.9 2.9 63.1 2.8 67.7h.2c2.1-11.7 4.3-24 7.2-37.8l6.3-29.9h8.5l-18 84.8h-10.3zm74.4-55.7l-6.2 29.1c-3.9 18.5-7.9 26.6-25.4 26.6h-15.2l18-84.8h13.1c17.4 0 19.4 12.1 15.7 29.1z" class="st21"/><path d="M1110.3 538.6h-4.6l-14.9 69.8h4.9c9.5 0 13.1-3.6 16.2-18.2l6.9-32.3c3-13.4 1.5-19.3-8.5-19.3z" class="st21"/></g></g></g></svg>