<?xml version="1.0" standalone="no"?><!DOCTYPE svg PUBLIC "-//W3C//DTD SVG 1.1//EN" "http://www.w3.org/Graphics/SVG/1.1/DTD/svg11.dtd"><svg t="1637856552202" class="icon" viewBox="0 0 1024 1024" version="1.1" xmlns="http://www.w3.org/2000/svg" p-id="41342" xmlns:xlink="http://www.w3.org/1999/xlink" width="250" height="250"><defs><style type="text/css"></style></defs><path d="M512 512m-512 0a512 512 0 1 0 1024 0 512 512 0 1 0-1024 0Z" fill="#2F9FDA" p-id="41343"></path><path d="M650.410667 704.654222l80.497777-379.335111c3.271111-16.071111 1.336889-27.591111-5.774222-34.503111-7.111111-6.940444-16.497778-8.220444-28.16-3.84L223.971556 469.276444c-10.581333 4.010667-17.806222 8.561778-21.617778 13.653334-3.84 5.12-4.295111 9.955556-1.365334 14.506666 2.901333 4.579556 8.732444 8.135111 17.493334 10.695112l120.974222 37.774222 280.832-176.810667c7.68-5.12 13.511111-6.200889 17.521778-3.271111 2.56 1.820444 1.820444 4.551111-2.190222 8.192l-227.185778 205.283556-8.760889 124.814222c8.391111 0 16.611556-4.010667 24.632889-12.060445l59.136-56.917333 122.595555 90.311111c23.381333 13.141333 38.144 6.200889 44.373334-20.792889z" fill="#FAFAFA" p-id="41344"></path></svg>