<?xml version="1.0" ?><!DOCTYPE svg  PUBLIC '-//W3C//DTD SVG 1.1//EN'  'http://www.w3.org/Graphics/SVG/1.1/DTD/svg11.dtd'><svg height="100%" style="fill-rule:evenodd;clip-rule:evenodd;stroke-linejoin:round;stroke-miterlimit:2;" version="1.1" viewBox="0 0 512 512" width="100%" xml:space="preserve" xmlns="http://www.w3.org/2000/svg" xmlns:serif="http://www.serif.com/" xmlns:xlink="http://www.w3.org/1999/xlink"><g><circle cx="256" cy="256" id="Dark_Blue" r="256" style="fill:#1da1f2;"/><path d="M209.152,391.04c113.536,0 175.616,-94.08 175.616,-175.616c0,-2.688 0,-5.376 -0.128,-7.936c12.032,-8.704 22.528,-19.584 30.848,-32c-11.008,4.864 -22.912,8.192 -35.456,9.728c12.8,-7.68 22.528,-19.712 27.136,-34.176c-11.904,7.04 -25.088,12.16 -39.168,14.976c-11.264,-12.032 -27.264,-19.456 -45.056,-19.456c-34.048,0 -61.696,27.648 -61.696,61.696c0,4.864 0.512,9.6 1.664,14.08c-51.328,-2.56 -96.768,-27.136 -127.232,-64.512c-5.248,9.088 -8.32,19.712 -8.32,30.976c0,21.376 10.88,40.32 27.52,51.328c-10.112,-0.256 -19.584,-3.072 -27.904,-7.68l0,0.768c0,29.952 21.248,54.784 49.536,60.544c-5.12,1.408 -10.624,2.176 -16.256,2.176c-3.968,0 -7.808,-0.384 -11.648,-1.152c7.808,24.576 30.592,42.368 57.6,42.88c-21.12,16.512 -47.744,26.368 -76.672,26.368c-4.992,0 -9.856,-0.256 -14.72,-0.896c27.008,17.664 59.52,27.904 94.336,27.904" id="Logo__x2014__FIXED" style="fill:#fff;fill-rule:nonzero;"/></g></svg>